<svg preserveAspectRatio="none" width="100%" height="100%" overflow="visible" style="display: block;" viewBox="0 0 317 356.625" fill="none" xmlns="http://www.w3.org/2000/svg">
<g id="Icon" opacity="0.05" clip-path="url(#clip0_0_26)">
<path id="Vector" d="M104.566 44.717V105.644C104.566 116.265 95.0266 124.276 84.7535 122.226L37.4236 112.724L0 150.92L82.5521 167.317C100.897 171.042 119.792 165.081 132.817 151.479C142.907 140.859 148.594 126.698 148.594 111.979V0L104.566 44.717Z" fill="var(--fill-0, #0F62FE)"/>
<path id="Vector_2" d="M212.38 44.717V104.712C212.38 115.891 222.457 124.276 233.084 122.04L279.439 112.724L317 150.92L234.549 167.317C216.228 171.042 197.355 165.081 184.346 151.479C174.086 141.045 168.406 126.884 168.406 112.166V0L212.38 44.717Z" fill="var(--fill-0, #0F62FE)"/>
<path id="Vector_3" d="M104.566 311.958V249.609C104.566 239.745 95.7605 232.301 86.0377 234.161L37.4236 243.839L0 205.685L82.5521 189.307C100.897 185.586 119.792 191.541 132.817 205.128C142.907 215.736 148.594 229.88 148.594 244.583V356.625L104.566 311.958Z" fill="var(--fill-0, #0F62FE)"/>
<path id="Vector_4" d="M212.434 311.908V248.559C212.434 239.057 220.873 231.977 230.045 233.839L279.576 243.715L317 205.705L234.448 189.308C216.103 185.583 197.208 191.544 184.183 205.146C174.093 215.766 168.406 229.927 168.406 244.646V356.625L212.434 311.908Z" fill="var(--fill-0, #0F62FE)"/>
</g>
<defs>
<clipPath id="clip0_0_26">
<rect width="317" height="356.625" fill="white"/>
</clipPath>
</defs>
</svg>
